<svg xmlns="http://www.w3.org/2000/svg" viewBox="0 0 1920 1080" preserveAspectRatio="none">
  <rect width="1920" height="1080" fill="#022C22"/>
  <circle cx="14" cy="26" r="1" fill="#34D399" opacity="0.1"/><circle cx="67" cy="67" r="2" fill="#34D399" opacity="0.2"/><circle cx="120" cy="108" r="3" fill="#34D399" opacity="0.30000000000000004"/><circle cx="173" cy="149" r="4" fill="#34D399" opacity="0.4"/><circle cx="226" cy="190" r="5" fill="#34D399" opacity="0.5"/><circle cx="279" cy="231" r="1" fill="#34D399" opacity="0.6"/><circle cx="332" cy="272" r="2" fill="#34D399" opacity="0.7"/><circle cx="385" cy="313" r="3" fill="#34D399" opacity="0.7999999999999999"/><circle cx="438" cy="354" r="4" fill="#34D399" opacity="0.9"/><circle cx="491" cy="395" r="5" fill="#34D399" opacity="1"/><circle cx="544" cy="436" r="1" fill="#34D399" opacity="0.1"/><circle cx="597" cy="477" r="2" fill="#34D399" opacity="0.2"/><circle cx="650" cy="518" r="3" fill="#34D399" opacity="0.30000000000000004"/><circle cx="703" cy="559" r="4" fill="#34D399" opacity="0.4"/><circle cx="756" cy="600" r="5" fill="#34D399" opacity="0.5"/><circle cx="809" cy="641" r="1" fill="#34D399" opacity="0.6"/><circle cx="862" cy="682" r="2" fill="#34D399" opacity="0.7"/><circle cx="915" cy="723" r="3" fill="#34D399" opacity="0.7999999999999999"/><circle cx="968" cy="764" r="4" fill="#34D399" opacity="0.9"/><circle cx="1021" cy="805" r="5" fill="#34D399" opacity="1"/><circle cx="1074" cy="846" r="1" fill="#34D399" opacity="0.1"/><circle cx="1127" cy="887" r="2" fill="#34D399" opacity="0.2"/><circle cx="1180" cy="928" r="3" fill="#34D399" opacity="0.30000000000000004"/><circle cx="1233" cy="969" r="4" fill="#34D399" opacity="0.4"/><circle cx="1286" cy="1010" r="5" fill="#34D399" opacity="0.5"/><circle cx="1339" cy="1051" r="1" fill="#34D399" opacity="0.6"/><circle cx="1392" cy="12" r="2" fill="#34D399" opacity="0.7"/><circle cx="1445" cy="53" r="3" fill="#34D399" opacity="0.7999999999999999"/><circle cx="1498" cy="94" r="4" fill="#34D399" opacity="0.9"/><circle cx="1551" cy="135" r="5" fill="#34D399" opacity="1"/><circle cx="1604" cy="176" r="1" fill="#34D399" opacity="0.1"/><circle cx="1657" cy="217" r="2" fill="#34D399" opacity="0.2"/><circle cx="1710" cy="258" r="3" fill="#34D399" opacity="0.30000000000000004"/><circle cx="1763" cy="299" r="4" fill="#34D399" opacity="0.4"/><circle cx="1816" cy="340" r="5" fill="#34D399" opacity="0.5"/><circle cx="1869" cy="381" r="1" fill="#34D399" opacity="0.6"/><circle cx="2" cy="422" r="2" fill="#34D399" opacity="0.7"/><circle cx="55" cy="463" r="3" fill="#34D399" opacity="0.7999999999999999"/><circle cx="108" cy="504" r="4" fill="#34D399" opacity="0.9"/><circle cx="161" cy="545" r="5" fill="#34D399" opacity="1"/>
  <circle cx="960" cy="540" r="400" fill="#065F46" opacity="0.3" filter="blur(60px)"/></svg>